<svg id="Capa_1" enable-background="new 0 0 512 512" height="32" viewBox="0 0 512 512" width="32" xmlns="http://www.w3.org/2000/svg"><g><g><g><path d="m512 325.49-82.55 31.604-26.75-16.814-48-149.11 3.43-37.13v-61.083l58.37 2.713c58.99 58.72 95.511 140.01 95.5 229.82z" fill="#9c7123"/><path d="m416.5 95.67-58.37 58.37-27.94.38-151.12-41.89-20.62-27.04 33.27-85.32c87.69 1.07 167.02 37.99 224.78 95.5z" fill="#c68e2c"/></g><g><path d="m429.45 427.93c-2.55 21.77-20.21 39.43-41.98 39.43s-39.43-17.66-39.43-39.43v-42.55l-5.083-3.061v-41.532l5.083-8.457-4.487 4.372h-19.915l-7.088-4.372 7.003 5.825v44.17l-7.003 13.915-67.915 25.353-37.425-8.293-90.89 30.64-23.107 32.816-97.213 35.074 214.72-248.65 143.41-109.14c44.05 43.78 71.32 104.43 71.32 171.45z" fill="#edbe00"/><path d="m72.149 317.979-72.149 193.851 358.13-357.79c-43.71-43.46-104.313-69.213-170.813-69.213-9.9 0-19.277-.497-28.867.663l-18.378 49.53 20.726 57.758-56.681 115.915z" fill="#ffd944"/></g><g><g><path d="m258.287 154.42h31.495v30h-31.495z" fill="#9bdc05"/></g></g><path d="m72.229 318.158c50.573 18.734 106.757-7.077 125.491-57.65s-7.077-106.757-57.65-125.491z" fill="#ff4c04"/></g><path d="m248.635 421.593c-14.576-23.062-40.275-38.403-69.578-38.468-49.241-.11-88.244 44.826-81.844 93.631z" fill="#ff4c04"/><g><g><path d="m253.559 319.543h31.495v30h-31.495z" fill="#80b405"/></g></g><g><g><path d="m316.549 240.584h31.495v30h-31.495z" fill="#80b405"/></g></g><path d="m348.04 332.33v53.05l-31.49 10.86v-63.91z" fill="#dcb000"/></g></svg>